<svg width="16" height="17" viewBox="0 0 16 17" fill="none" xmlns="http://www.w3.org/2000/svg">
<path d="M7.04066 1.46799L7.04066 12.8753C7.04033 12.9091 7.02981 12.9419 7.01048 12.9696C6.99115 12.9972 6.9639 13.0184 6.93232 13.0303C6.90074 13.0422 6.86631 13.0443 6.83353 13.0362C6.80075 13.0282 6.77117 13.0105 6.74866 12.9853L1.68199 7.22732C1.51132 7.0463 1.27704 6.93861 1.02852 6.92694C0.780002 6.91527 0.53666 7.00054 0.349779 7.16478C0.162899 7.32901 0.0470753 7.55938 0.0267195 7.80734C0.00636359 8.0553 0.083065 8.30147 0.240659 8.49399L6.79999 15.948C6.95014 16.1182 7.1348 16.2546 7.34169 16.348C7.54859 16.4414 7.77299 16.4897 7.99999 16.4897C8.22699 16.4897 8.4514 16.4414 8.65829 16.348C8.86519 16.2546 9.04985 16.1182 9.19999 15.948L15.758 8.49532C15.9136 8.30265 15.9887 8.0573 15.9677 7.81053C15.9467 7.56376 15.8311 7.33468 15.6451 7.17115C15.4591 7.00761 15.2171 6.92229 14.9696 6.93301C14.7222 6.94372 14.4885 7.04965 14.3173 7.22865L9.25066 12.9867C9.22815 13.0118 9.19857 13.0295 9.16579 13.0376C9.13301 13.0456 9.09857 13.0435 9.067 13.0316C9.03542 13.0197 9.00817 12.9986 8.98884 12.9709C8.9695 12.9433 8.95898 12.9104 8.95866 12.8767L8.95866 1.46799C8.95207 1.21785 8.84807 0.980166 8.66881 0.805575C8.48956 0.630984 8.24922 0.533283 7.99899 0.533283C7.74877 0.533283 7.50843 0.630984 7.32917 0.805575C7.14992 0.980166 7.04592 1.21785 7.03933 1.46799L7.04066 1.46799Z" fill="#22C0D8"/>
</svg>
